<svg xmlns="http://www.w3.org/2000/svg" width="24" height="24" viewBox="0 0 24 24"><path fill="#ff5e47" d="M10.5 8v4.5a1 1 0 0 0 1 1h1a1 1 0 0 0 1-1V8L13 4h-2zM7 16a1 1 0 1 0 0 2h3a1 1 0 1 0 0-2z" opacity="0.5"/><path fill="#ff5e47" d="M8.512 3.25h6.976c.5 0 .895 0 1.267.106c.328.093.636.247.907.453c.309.234.545.55.846.95l1.487 1.984c.204.272.364.485.48.726q.156.32.224.67c.051.263.051.53.051.87v7.822c0 .534 0 .98-.03 1.344c-.03.38-.098.736-.27 1.073a2.75 2.75 0 0 1-1.201 1.202c-.338.172-.694.24-1.074.27c-.364.03-.81.03-1.344.03H7.17c-.535 0-.98 0-1.345-.03c-.38-.03-.736-.098-1.073-.27a2.75 2.75 0 0 1-1.202-1.2c-.172-.338-.24-.694-.27-1.074c-.03-.364-.03-.81-.03-1.344V9.008c0-.339 0-.606.051-.869a2.8 2.8 0 0 1 .223-.67c.117-.24.277-.454.481-.726L5.493 4.76c.3-.401.536-.717.845-.95c.271-.207.579-.36.907-.454c.372-.107.766-.106 1.267-.106m3.15 1.5l-.312 2.5h1.3l-.312-2.5zm-1.512 0H8.6c-.63 0-.799.007-.943.048a1.3 1.3 0 0 0-.413.206c-.12.091-.226.222-.604.726L5.5 7.25h4.338zm-.4 4H4.751l-.001.317V16.8c0 .572 0 .957.025 1.252c.023.288.065.425.111.515c.12.236.311.427.547.547c.09.046.227.088.515.111c.295.024.68.025 1.252.025h9.6c.572 0 .957 0 1.253-.025c.287-.023.424-.065.514-.111a1.25 1.25 0 0 0 .547-.547c.046-.09.088-.227.111-.515c.024-.295.025-.68.025-1.252V9.067l-.001-.317H14.25v3.75a1.75 1.75 0 0 1-1.75 1.75h-1a1.75 1.75 0 0 1-1.75-1.75zm3 0h-1.5v3.75c0 .138.112.25.25.25h1a.25.25 0 0 0 .25-.25zm1.412-1.5H18.5l-1.14-1.52c-.378-.504-.485-.635-.604-.726a1.3 1.3 0 0 0-.413-.206c-.144-.041-.313-.048-.943-.048h-1.55z"/></svg>